# xmcd
#
# Track frame offsets: 
#        150
#        15745
#        30585
#        52114
#        73431
#        93030
#        128667
#        153934
#        173562
#        191240
#        207263
#        225078
#        246085
#        268568
#        292064
#        317277
#        339000
#
# Disc length: 4771 seconds
#
# Revision: 0
# Processed by: cddbd v1.5.2PL0 Copyright (c) Steve Scherf et al.
# Submitted via: ExactAudioCopy v1.3
#
DISCID=e012a111
DTITLE=Various Artist - Akella Presents - vol. 180 - Various Styles O
DTITLE=f Blues-Relax  CD2
DYEAR=2019
DGENRE=Blues
TTITLE0=Louis Mezzasoma - The Devil Let Him Fall Down
TTITLE1='A' Blues Band - Psalm 142
TTITLE2=Dr Harp's Medicine Band - Unchain My Heart
TTITLE3=Eric Clapton - Away In A Manger
TTITLE4=Big Gilson and The Wolf - Chrysalis
TTITLE5=Blues Cousins - The Dream
TTITLE6=Chris O'Leary - Your Day Will Come
TTITLE7=Blue Attitude - How Deep The River Runs
TTITLE8=Zeebee - La Belle Nation
TTITLE9=Wily Bo Walker and E D Brayshaw - Motel Blues
TTITLE10=Fiona Boyes - Dark and Dangerous Love
TTITLE11=Bill Deraime - L'enfer
TTITLE12=John Illsley - When Things Go Right
TTITLE13=Dominic Schoemaker - Lady
TTITLE14=Bad Temper Joe - Highway Takes The Lonely
TTITLE15=Maria Muldaur - Georgia Grind
TTITLE16=Tom McGuinness - Keep On Keeping On
EXTD=
EXTT0=
EXTT1=
EXTT2=
EXTT3=
EXTT4=
EXTT5=
EXTT6=
EXTT7=
EXTT8=
EXTT9=
EXTT10=
EXTT11=
EXTT12=
EXTT13=
EXTT14=
EXTT15=
EXTT16=
PLAYORDER=
